<svg width="338" height="176" viewBox="0 0 338 176" fill="none" xmlns="http://www.w3.org/2000/svg">
<path d="M250.087 121.875L295.681 98.772L250.087 75.669V47.211L331.636 88.368L250.087 129.525V121.875ZM303.331 94.947L316.183 88.521L256.972 58.533V71.538L303.331 94.947Z" fill="#DB5797"/>
<path d="M87.21 54.861L41.616 77.964L87.21 101.067V129.525L5.661 88.368L87.21 47.211V54.861ZM33.966 81.789L21.114 88.215L80.325 118.203V105.198L33.966 81.789Z" fill="#DB5797"/>
<path d="M153.186 122.791C146.861 122.791 140.785 121.545 134.958 119.055C129.18 116.565 124.05 112.979 119.568 108.297C115.135 103.616 111.599 97.9131 108.959 91.1895C106.32 84.416 105 76.7959 105 68.3291C105 59.8623 106.295 52.1924 108.885 45.3193C111.475 38.3965 115.061 32.4448 119.643 27.4644C124.175 22.5337 129.529 18.7236 135.705 16.0342C141.88 13.3447 148.479 12 155.502 12C160.731 12 165.463 12.6475 169.696 13.9424C173.93 15.2373 177.964 17.0552 181.799 19.396L184.862 14.3159H190.838L191.511 52.1177H185.385C184.588 48.4321 183.393 44.4478 181.799 40.1646C180.205 35.8315 178.337 32.1709 176.196 29.1826C173.805 25.7959 170.966 23.1562 167.679 21.2637C164.392 19.3213 160.632 18.3501 156.398 18.3501C151.567 18.3501 147.06 19.4209 142.876 21.5625C138.743 23.7041 135.157 26.8667 132.119 31.0503C129.23 35.0845 126.964 40.2144 125.32 46.4399C123.677 52.6655 122.855 59.6133 122.855 67.2832C122.855 74.0566 123.702 80.2822 125.395 85.96C127.138 91.5879 129.604 96.5435 132.791 100.827C135.979 105.06 139.739 108.372 144.072 110.763C148.455 113.153 153.335 114.349 158.714 114.349C162.749 114.349 166.459 113.726 169.846 112.481C173.232 111.186 175.558 109.882 178.661 107.401C183.017 103.919 184.703 101.366 187.672 96.8242C192.911 88.8087 193.672 86.3242 196.672 74.3242L199.672 75.3242C196.672 92.8242 188.172 109.324 178.437 116.067C171.365 120.549 162.948 122.791 153.186 122.791Z" fill="black"/>
<path d="M191.486 64.9985C197.811 64.9985 203.887 66.2436 209.714 68.7339C215.492 71.2241 220.622 74.8101 225.104 79.4917C229.537 84.1733 233.073 89.876 235.712 96.5996C238.352 103.373 239.672 110.993 239.672 119.46C239.672 127.927 238.377 135.597 235.787 142.47C233.197 149.393 229.611 155.344 225.029 160.325C220.497 165.255 215.143 169.065 208.967 171.755C202.792 174.444 196.192 175.789 189.17 175.789C183.94 175.789 179.209 175.142 174.976 173.847C170.742 172.552 166.708 170.734 162.873 168.393L159.81 173.473L153.833 173.473L153.161 135.671L159.287 135.671C160.084 139.357 161.279 143.341 162.873 147.625C164.467 151.958 166.334 155.618 168.476 158.606C170.867 161.993 173.706 164.633 176.993 166.525C180.28 168.468 184.04 169.439 188.273 169.439C193.104 169.439 197.612 168.368 201.795 166.227C205.929 164.085 209.515 160.922 212.553 156.739C215.442 152.705 217.708 147.575 219.352 141.349C220.995 135.124 221.817 128.176 221.817 120.506C221.817 113.732 220.97 107.507 219.277 101.829C217.534 96.2012 215.068 91.2456 211.881 86.9624C208.693 82.729 204.933 79.417 200.6 77.0264C196.217 74.6357 191.336 73.4404 185.958 73.4404C181.923 73.4404 178.213 74.063 174.826 75.3081C171.439 76.603 169.114 77.9072 166.011 80.3882C161.655 83.87 159.969 86.4228 157 90.9648C151.761 98.9804 151 101.465 148 113.465L145 112.465C148 94.9648 156.5 78.4648 166.235 71.7222C173.307 67.2397 181.724 64.9985 191.486 64.9985Z" fill="black"/>
</svg>
