<svg width="680" height="217" viewBox="0 0 680 217" fill="none" xmlns="http://www.w3.org/2000/svg">
<path d="M679.657 59.6197C679.657 63.0487 678.816 66.108 677.136 68.7974C675.455 71.4196 672.866 72.7307 669.37 72.7307C665.604 72.7307 662.713 71.7558 660.696 69.806C658.746 67.8561 657.771 65.7045 657.771 63.3513C657.771 61.8721 657.872 60.5273 658.074 59.3171C658.343 58.1068 658.578 56.8966 658.78 55.6863C655.62 55.6863 651.922 56.9638 647.686 59.5188C643.45 62.0738 639.853 65.7045 636.895 70.4111V128.302C636.895 130.655 637.332 132.571 638.206 134.05C639.147 135.529 640.593 136.639 642.542 137.378C644.223 138.051 646.375 138.555 648.997 138.891C651.687 139.227 654.006 139.463 655.956 139.597V146.254H603.512V139.597C605.058 139.463 606.638 139.328 608.252 139.194C609.933 139.059 611.378 138.79 612.589 138.387C614.471 137.782 615.85 136.74 616.724 135.261C617.665 133.714 618.136 131.731 618.136 129.31V67.8897C618.136 65.8054 617.631 63.7547 616.623 61.7376C615.682 59.7205 614.337 58.1068 612.589 56.8966C611.311 56.0897 609.798 55.5182 608.05 55.1821C606.302 54.7786 604.419 54.5097 602.402 54.3752V47.8197L635.483 45.6009L636.895 47.0128V61.0316H637.399C641.568 55.5855 646.207 51.4504 651.317 48.6265C656.427 45.8026 661.1 44.3906 665.336 44.3906C669.571 44.3906 673 45.769 675.623 48.5257C678.312 51.2823 679.657 54.9803 679.657 59.6197Z" fill="black"/>
<path d="M589.088 95.5288C589.088 102.521 587.978 109.413 585.76 116.204C583.541 122.928 580.381 128.643 576.279 133.349C571.64 138.728 566.261 142.729 560.142 145.351C554.024 147.973 547.166 149.284 539.568 149.284C533.248 149.284 527.23 148.108 521.515 145.754C515.8 143.334 510.724 139.838 506.286 135.265C501.916 130.761 498.42 125.281 495.797 118.826C493.242 112.304 491.965 105.009 491.965 96.9408C491.965 81.4092 496.47 68.7015 505.479 58.8178C514.556 48.9341 526.423 43.9922 541.081 43.9922C554.999 43.9922 566.463 48.6987 575.472 58.1118C584.549 67.4577 589.088 79.93 589.088 95.5288ZM568.211 95.7305C568.211 90.6878 567.707 85.3761 566.698 79.7955C565.689 74.1477 564.177 69.3739 562.16 65.4742C560.008 61.3055 557.184 57.9773 553.688 55.4896C550.191 52.9346 545.922 51.6571 540.879 51.6571C535.702 51.6571 531.264 52.9346 527.566 55.4896C523.936 58.0446 520.977 61.5409 518.691 65.9785C516.54 70.0799 515.027 74.7528 514.153 79.9972C513.279 85.2417 512.842 90.318 512.842 95.2263C512.842 101.681 513.346 107.665 514.355 113.178C515.43 118.625 517.111 123.499 519.397 127.802C521.683 132.105 524.541 135.501 527.97 137.989C531.466 140.409 535.769 141.619 540.879 141.619C549.284 141.619 555.94 137.552 560.848 129.416C565.757 121.28 568.211 110.052 568.211 95.7305Z" fill="black"/>
<path d="M482.191 141.907C477.821 143.722 473.686 145.235 469.786 146.445C465.886 147.723 461.113 148.362 455.465 148.362C447.127 148.362 441.244 146.277 437.815 142.109C434.453 137.873 432.772 131.922 432.772 124.257V56.8865H414.82V47.2045H433.176V16.2422H451.531V47.2045H480.073V56.8865H451.733V112.457C451.733 116.626 451.868 120.122 452.136 122.946C452.473 125.703 453.212 128.123 454.355 130.208C455.431 132.158 457.045 133.637 459.196 134.645C461.348 135.654 464.239 136.158 467.87 136.158C469.551 136.158 472.005 136.024 475.232 135.755C478.527 135.419 480.846 135.015 482.191 134.545V141.907Z" fill="black"/>
<path d="M410.887 144.443C407.727 145.586 404.937 146.494 402.516 147.166C400.163 147.906 397.474 148.276 394.448 148.276C389.204 148.276 385.001 147.065 381.841 144.645C378.748 142.157 376.765 138.56 375.891 133.854H375.286C370.915 138.695 366.209 142.393 361.166 144.948C356.191 147.503 350.173 148.78 343.113 148.78C335.65 148.78 329.498 146.494 324.657 141.922C319.883 137.35 317.496 131.366 317.496 123.97C317.496 120.137 318.034 116.708 319.11 113.683C320.186 110.657 321.799 107.934 323.951 105.513C325.632 103.496 327.85 101.715 330.607 100.168C333.364 98.5545 335.952 97.277 338.373 96.3357C341.399 95.1926 347.517 93.0747 356.728 89.9818C366.007 86.889 372.26 84.4685 375.487 82.7203V72.7357C375.487 71.8616 375.286 70.1807 374.882 67.693C374.546 65.2052 373.773 62.852 372.563 60.6332C371.218 58.1454 369.302 55.9939 366.814 54.1785C364.393 52.2959 360.931 51.3546 356.426 51.3546C353.333 51.3546 350.442 51.8925 347.752 52.9682C345.13 53.9768 343.281 55.0526 342.205 56.1956C342.205 57.5403 342.508 59.5238 343.113 62.146C343.785 64.7682 344.122 67.1887 344.122 69.4075C344.122 71.7608 343.046 73.9124 340.894 75.8622C338.81 77.8121 335.885 78.787 332.12 78.787C328.758 78.787 326.27 77.6103 324.657 75.2571C323.11 72.8366 322.337 70.1471 322.337 67.1887C322.337 64.0958 323.413 61.1374 325.564 58.3135C327.783 55.4896 330.641 52.9682 334.137 50.7494C337.163 48.8668 340.827 47.2868 345.13 46.0093C349.433 44.6646 353.636 43.9922 357.737 43.9922C363.385 43.9922 368.293 44.3956 372.462 45.2024C376.698 45.942 380.53 47.5893 383.959 50.1443C387.388 52.6321 389.977 56.0275 391.725 60.3306C393.54 64.5665 394.448 70.0463 394.448 76.7699C394.448 86.3847 394.347 94.9237 394.146 102.387C393.944 109.783 393.843 117.885 393.843 126.693C393.843 129.315 394.28 131.399 395.154 132.946C396.095 134.492 397.507 135.803 399.39 136.879C400.398 137.484 401.979 137.82 404.13 137.888C406.349 137.955 408.601 137.989 410.887 137.989V144.443ZM375.689 91.1921C369.974 92.873 364.965 94.5203 360.662 96.134C356.359 97.7476 352.358 99.7647 348.66 102.185C345.298 104.471 342.642 107.194 340.693 110.354C338.743 113.447 337.768 117.145 337.768 121.448C337.768 127.029 339.213 131.13 342.105 133.753C345.063 136.375 348.795 137.686 353.299 137.686C358.073 137.686 362.275 136.543 365.906 134.257C369.537 131.904 372.596 129.147 375.084 125.987L375.689 91.1921Z" fill="black"/>
<path d="M305.192 122.86C301.024 130.794 295.443 137.115 288.45 141.821C281.458 146.528 273.423 148.881 264.346 148.881C256.345 148.881 249.319 147.469 243.268 144.645C237.284 141.821 232.342 137.989 228.442 133.148C224.542 128.307 221.618 122.659 219.668 116.204C217.785 109.749 216.844 102.925 216.844 95.7305C216.844 89.2759 217.852 82.9556 219.869 76.7699C221.954 70.5169 224.979 64.9027 228.946 59.9272C232.779 55.1534 237.519 51.3209 243.167 48.4298C248.882 45.4714 255.269 43.9922 262.329 43.9922C269.591 43.9922 275.81 45.1352 280.987 47.4212C286.164 49.7073 290.367 52.8338 293.594 56.8007C296.687 60.5659 298.973 65.0035 300.452 70.1135C301.999 75.2235 302.772 80.7705 302.772 86.7545V93.4109H236.914C236.914 99.9328 237.519 105.85 238.729 111.161C240.007 116.473 241.99 121.146 244.68 125.18C247.302 129.08 250.731 132.173 254.967 134.459C259.203 136.677 264.245 137.787 270.095 137.787C276.079 137.787 281.223 136.409 285.526 133.652C289.896 130.828 294.098 125.785 298.132 118.524L305.192 122.86ZM282.903 84.9391C282.903 81.1739 282.567 77.1397 281.895 72.8366C281.29 68.5334 280.281 64.9363 278.869 62.0451C277.323 58.9523 275.205 56.4309 272.515 54.4811C269.826 52.5312 266.363 51.5563 262.127 51.5563C255.068 51.5563 249.184 54.5147 244.478 60.4315C239.839 66.281 237.317 74.4502 236.914 84.9391H282.903Z" fill="black"/>
<path d="M208.27 59.6197C208.27 63.0487 207.43 66.108 205.749 68.7974C204.068 71.4196 201.479 72.7307 197.983 72.7307C194.218 72.7307 191.327 71.7558 189.31 69.806C187.36 67.8561 186.385 65.7045 186.385 63.3513C186.385 61.8721 186.486 60.5273 186.687 59.3171C186.956 58.1068 187.192 56.8966 187.393 55.6863C184.233 55.6863 180.535 56.9638 176.299 59.5188C172.063 62.0738 168.466 65.7045 165.508 70.4111V128.302C165.508 130.655 165.945 132.571 166.819 134.05C167.76 135.529 169.206 136.639 171.156 137.378C172.837 138.051 174.988 138.555 177.61 138.891C180.3 139.227 182.62 139.463 184.569 139.597V146.254H132.125V139.597C133.671 139.463 135.252 139.328 136.865 139.194C138.546 139.059 139.992 138.79 141.202 138.387C143.085 137.782 144.463 136.74 145.337 135.261C146.278 133.714 146.749 131.731 146.749 129.31V67.8897C146.749 65.8054 146.245 63.7547 145.236 61.7376C144.295 59.7205 142.95 58.1068 141.202 56.8966C139.924 56.0897 138.412 55.5182 136.663 55.1821C134.915 54.7786 133.033 54.5097 131.016 54.3752V47.8197L164.096 45.6009L165.508 47.0128V61.0316H166.012C170.181 55.5855 174.82 51.4504 179.93 48.6265C185.04 45.8026 189.713 44.3906 193.949 44.3906C198.185 44.3906 201.614 45.769 204.236 48.5257C206.925 51.2823 208.27 54.9803 208.27 59.6197Z" fill="black"/>
<path d="M65.0511 149.567C56.5121 149.567 48.3093 147.886 40.4427 144.524C32.6432 141.163 25.7179 136.322 19.6666 130.001C13.6826 123.681 8.90881 115.983 5.34529 106.906C1.78176 97.7616 0 87.4745 0 76.0443C0 64.6141 1.74814 54.2597 5.24443 44.9811C8.74072 35.6353 13.5817 27.6005 19.7675 20.8769C25.886 14.2205 33.1139 9.0769 41.4512 5.44614C49.7885 1.81538 58.6973 0 68.1776 0C75.2375 0 81.6249 0.874072 87.34 2.62222C93.0551 4.37036 98.5012 6.82449 103.678 9.98459L107.813 3.12649H115.882L116.79 54.1589H108.519C107.444 49.1834 105.83 43.8045 103.678 38.0221C101.527 32.1726 99.0055 27.2307 96.1143 23.1965C92.887 18.6245 89.0545 15.0609 84.6169 12.506C80.1793 9.88374 75.103 8.57263 69.3879 8.57263C62.866 8.57263 56.7811 10.0182 51.1332 12.9094C45.5526 15.8005 40.7116 20.07 36.6102 25.7179C32.7105 31.164 29.6512 38.0894 27.4324 46.4939C25.2136 54.8985 24.1042 64.2779 24.1042 74.6323C24.1042 83.7765 25.2472 92.181 27.5333 99.8459C29.8865 107.444 33.2147 114.134 37.5179 119.916C41.821 125.631 46.8973 130.102 52.7469 133.33C58.6637 136.557 65.2529 138.171 72.5144 138.171C77.9605 138.171 82.9696 137.33 87.5417 135.649C92.1138 133.901 96.0807 131.615 99.4425 128.791C102.804 125.833 105.763 122.471 108.318 118.706C110.873 114.94 112.957 110.839 114.571 106.401L122.135 110.032C116.352 124.219 108.688 134.372 99.14 140.49C89.5924 146.542 78.2295 149.567 65.0511 149.567Z" fill="black"/>
<path d="M484.173 194.361C484.089 193.332 483.696 192.53 482.993 191.954C482.301 191.378 481.247 191.09 479.831 191.09C478.928 191.09 478.189 191.198 477.612 191.414C477.046 191.62 476.626 191.903 476.353 192.263C476.081 192.623 475.939 193.034 475.928 193.497C475.907 193.878 475.976 194.222 476.133 194.531C476.301 194.829 476.563 195.102 476.92 195.348C477.276 195.585 477.733 195.801 478.289 195.996C478.845 196.192 479.505 196.367 480.271 196.521L482.914 197.076C484.698 197.447 486.224 197.935 487.493 198.542C488.762 199.149 489.801 199.864 490.609 200.687C491.416 201.499 492.009 202.415 492.386 203.433C492.775 204.451 492.974 205.562 492.984 206.766C492.974 208.843 492.444 210.602 491.395 212.042C490.346 213.482 488.846 214.578 486.895 215.328C484.955 216.079 482.621 216.455 479.893 216.455C477.093 216.455 474.649 216.048 472.561 215.236C470.484 214.423 468.869 213.174 467.715 211.487C466.572 209.79 465.995 207.619 465.984 204.976H474.292C474.345 205.943 474.591 206.755 475.032 207.414C475.472 208.072 476.091 208.571 476.888 208.91C477.696 209.25 478.656 209.419 479.768 209.419C480.701 209.419 481.483 209.306 482.112 209.08C482.741 208.854 483.219 208.54 483.544 208.139C483.869 207.738 484.037 207.28 484.047 206.766C484.037 206.282 483.874 205.86 483.56 205.5C483.255 205.13 482.752 204.801 482.049 204.513C481.346 204.215 480.397 203.937 479.201 203.68L475.991 203.001C473.138 202.394 470.888 201.381 469.241 199.962C467.605 198.532 466.792 196.583 466.803 194.114C466.792 192.108 467.338 190.355 468.439 188.853C469.551 187.341 471.088 186.163 473.049 185.32C475.021 184.476 477.282 184.055 479.831 184.055C482.432 184.055 484.682 184.482 486.581 185.335C488.479 186.189 489.942 187.392 490.97 188.946C492.009 190.488 492.533 192.294 492.544 194.361H484.173Z" fill="#DB5797"/>
<path d="M395.777 215.105V184.055H409.719C412.116 184.055 414.214 184.474 416.012 185.313C417.809 186.152 419.208 187.36 420.207 188.937C421.206 190.513 421.705 192.403 421.705 194.607C421.705 196.83 421.19 198.705 420.159 200.232C419.14 201.758 417.704 202.91 415.854 203.688C414.014 204.467 411.864 204.856 409.404 204.856H401.076V198.306H407.637C408.668 198.306 409.545 198.185 410.271 197.942C411.007 197.69 411.569 197.29 411.958 196.745C412.358 196.199 412.558 195.486 412.558 194.607C412.558 193.717 412.358 192.995 411.958 192.439C411.569 191.873 411.007 191.458 410.271 191.196C409.545 190.923 408.668 190.786 407.637 190.786H404.546V215.105H395.777ZM414.703 200.853L422.777 215.105H413.252L405.366 200.853H414.703Z" fill="#DB5797"/>
<path d="M329.637 215.105V184.055H353.937V190.847H338.79V196.184H352.686V202.976H338.79V208.313H353.871V215.105H329.637Z" fill="#DB5797"/>
<path d="M271.786 215.105H259.43V184.055H271.66C274.964 184.055 277.817 184.676 280.222 185.92C282.637 187.153 284.497 188.932 285.804 191.256C287.121 193.571 287.78 196.345 287.78 199.58C287.78 202.814 287.126 205.594 285.82 207.918C284.513 210.233 282.663 212.012 280.269 213.255C277.875 214.488 275.047 215.105 271.786 215.105ZM268.148 207.949H271.472C273.061 207.949 274.415 207.701 275.533 207.206C276.662 206.71 277.52 205.856 278.105 204.644C278.701 203.431 278.999 201.743 278.999 199.58C278.999 197.417 278.696 195.729 278.089 194.516C277.493 193.303 276.615 192.449 275.455 191.954C274.305 191.458 272.894 191.211 271.221 191.211H268.148V207.949Z" fill="#DB5797"/>
<path d="M217.577 200.255C217.577 203.766 216.886 206.728 215.504 209.14C214.122 211.542 212.257 213.365 209.908 214.607C207.56 215.839 204.941 216.455 202.052 216.455C199.143 216.455 196.514 215.834 194.165 214.591C191.827 213.339 189.967 211.512 188.585 209.109C187.213 206.697 186.527 203.745 186.527 200.255C186.527 196.744 187.213 193.787 188.585 191.385C189.967 188.972 191.827 187.15 194.165 185.918C196.514 184.676 199.143 184.055 202.052 184.055C204.941 184.055 207.56 184.676 209.908 185.918C212.257 187.15 214.122 188.972 215.504 191.385C216.886 193.787 217.577 196.744 217.577 200.255ZM208.661 200.255C208.661 198.366 208.407 196.774 207.898 195.481C207.399 194.177 206.656 193.192 205.669 192.524C204.692 191.847 203.486 191.508 202.052 191.508C200.618 191.508 199.408 191.847 198.42 192.524C197.444 193.192 196.701 194.177 196.192 195.481C195.693 196.774 195.443 198.366 195.443 200.255C195.443 202.144 195.693 203.74 196.192 205.044C196.701 206.337 197.444 207.323 198.42 208.001C199.408 208.668 200.618 209.001 202.052 209.001C203.486 209.001 204.692 208.668 205.669 208.001C206.656 207.323 207.399 206.337 207.898 205.044C208.407 203.74 208.661 202.144 208.661 200.255Z" fill="#DB5797"/>
<path d="M143.337 196.312H134.612C134.55 195.594 134.385 194.942 134.117 194.357C133.86 193.772 133.499 193.269 133.035 192.848C132.581 192.416 132.029 192.088 131.379 191.862C130.73 191.626 129.992 191.508 129.167 191.508C127.724 191.508 126.502 191.857 125.501 192.555C124.511 193.253 123.758 194.254 123.243 195.558C122.737 196.862 122.485 198.427 122.485 200.255C122.485 202.185 122.743 203.802 123.258 205.105C123.784 206.399 124.542 207.374 125.532 208.031C126.522 208.678 127.713 209.001 129.105 209.001C129.9 209.001 130.611 208.904 131.24 208.709C131.869 208.504 132.416 208.211 132.88 207.831C133.344 207.451 133.72 206.994 134.009 206.461C134.308 205.916 134.509 205.306 134.612 204.628L143.337 204.69C143.234 206.024 142.857 207.385 142.207 208.77C141.558 210.146 140.635 211.419 139.439 212.589C138.253 213.75 136.783 214.684 135.03 215.392C133.277 216.101 131.24 216.455 128.92 216.455C126.012 216.455 123.403 215.834 121.093 214.591C118.793 213.349 116.973 211.522 115.632 209.109C114.302 206.697 113.637 203.745 113.637 200.255C113.637 196.744 114.317 193.787 115.679 191.385C117.04 188.972 118.875 187.15 121.185 185.918C123.495 184.676 126.074 184.055 128.92 184.055C130.92 184.055 132.761 184.327 134.442 184.871C136.123 185.415 137.598 186.211 138.866 187.258C140.135 188.295 141.156 189.573 141.929 191.092C142.703 192.612 143.172 194.352 143.337 196.312Z" fill="#DB5797"/>
<path d="M80.6146 188.549L65.3915 196.19L80.6146 203.833V216.434L47.6016 199.928L80.6146 183.422V188.549ZM63.0171 196.192L79.5494 204.491V214.71L79.5507 214.712V204.489L63.0185 196.19L63.0171 196.192ZM55.5842 199.874L77.0524 210.646V210.645L55.5855 199.872L55.5842 199.874ZM57.9705 199.879L75.9898 208.92V206.63L60.242 198.753L57.9705 199.879ZM49.9825 199.928L79.5494 185.145V187.891H79.5507V185.144L49.9825 199.928Z" fill="#DB5797"/>
<path d="M621.259 199.928L588.246 216.434V211.306L603.469 203.665L588.246 196.023V183.422L621.259 199.928ZM589.311 214.71V211.963L589.31 211.964V214.712L618.878 199.928L618.877 199.926L589.311 214.71ZM589.31 195.366L605.841 203.664H605.844L589.311 195.365V185.144H589.31V195.366ZM592.871 193.225L608.619 201.102L610.89 199.977L592.871 190.935V193.225ZM613.274 199.982H613.276L591.808 189.209L613.274 199.982Z" fill="#DB5797"/>
<path d="M551.736 184.055H559.132L542.228 215.105H534.832L551.736 184.055Z" fill="#DB5797"/>
</svg>
